<svg width="16" height="16" viewBox="0 0 16 16" fill="none" xmlns="http://www.w3.org/2000/svg">
<g opacity="0.3">
<path d="M6.46967 8.53033C6.17678 8.23744 6.17678 7.76256 6.46967 7.46967L11.2426 2.6967C11.5355 2.40381 12.0104 2.40381 12.3033 2.6967C12.5962 2.98959 12.5962 3.46447 12.3033 3.75736L8.06066 8L12.3033 12.2426C12.5962 12.5355 12.5962 13.0104 12.3033 13.3033C12.0104 13.5962 11.5355 13.5962 11.2426 13.3033L6.46967 8.53033ZM8 8.75H7V7.25H8V8.75Z" fill="black"/>
<path d="M9.53033 8.53033C9.82322 8.23744 9.82322 7.76256 9.53033 7.46967L4.75736 2.6967C4.46447 2.40381 3.98959 2.40381 3.6967 2.6967C3.40381 2.98959 3.40381 3.46447 3.6967 3.75736L7.93934 8L3.6967 12.2426C3.40381 12.5355 3.40381 13.0104 3.6967 13.3033C3.98959 13.5962 4.46447 13.5962 4.75736 13.3033L9.53033 8.53033ZM8 8.75H9V7.25H8V8.75Z" fill="black"/>
</g>
</svg>
