<svg width="16" height="17" viewBox="0 0 16 17" fill="none" xmlns="http://www.w3.org/2000/svg">
<path d="M10.1197 11.3271L14.1457 15.3541C14.1921 15.4006 14.2473 15.4375 14.3081 15.4627C14.3688 15.4878 14.4339 15.5008 14.4997 15.5008C14.5654 15.5008 14.6305 15.4878 14.6912 15.4627C14.752 15.4375 14.8072 15.4006 14.8537 15.3541C14.9001 15.3077 14.937 15.2525 14.9622 15.1917C14.9873 15.131 15.0003 15.0659 15.0003 15.0001C15.0003 14.9344 14.9873 14.8693 14.9622 14.8086C14.937 14.7478 14.9001 14.6926 14.8537 14.6461L1.85366 1.64614C1.80717 1.59966 1.75198 1.56278 1.69124 1.53762C1.6305 1.51246 1.5654 1.49951 1.49966 1.49951C1.43391 1.49951 1.36881 1.51246 1.30807 1.53762C1.24733 1.56278 1.19214 1.59966 1.14566 1.64614C1.09917 1.69263 1.06229 1.74782 1.03713 1.80856C1.01197 1.8693 0.999023 1.9344 0.999023 2.00014C0.999023 2.06589 1.01197 2.13099 1.03713 2.19173C1.06229 2.25247 1.09917 2.30766 1.14566 2.35414L4.37565 5.58414C3.93604 5.89557 3.54047 6.2649 3.19966 6.68214C2.71705 7.2743 2.33928 7.94463 2.08265 8.66414C2.06165 8.72514 2.03566 8.80914 2.03566 8.80914L2.01765 8.87114C2.01765 8.87114 1.94165 9.36814 2.37265 9.48214C2.50075 9.516 2.63705 9.49763 2.75161 9.43107C2.86617 9.36451 2.94963 9.2552 2.98365 9.12714L2.98465 9.12414L2.99266 9.09914L3.02766 8.99014C3.24561 8.38267 3.56516 7.81662 3.97266 7.31614C4.293 6.9224 4.67212 6.58039 5.09666 6.30214L6.67466 7.88014C6.35622 8.07973 6.08688 8.34854 5.88666 8.66658C5.68645 8.98462 5.56051 9.34371 5.51822 9.71714C5.47593 10.0906 5.51838 10.4687 5.6424 10.8235C5.76643 11.1782 5.96884 11.5005 6.23458 11.7662C6.50032 12.032 6.82255 12.2344 7.17731 12.3584C7.53207 12.4824 7.91023 12.5249 8.28366 12.4826C8.65709 12.4403 9.01617 12.3144 9.33422 12.1141C9.65226 11.9139 9.92107 11.6446 10.1207 11.3261L10.1197 11.3271ZM9.37965 10.5871C9.28367 10.8132 9.13367 11.0121 8.94283 11.1666C8.75198 11.3211 8.52612 11.4264 8.28508 11.4733C8.04405 11.5201 7.7952 11.507 7.56038 11.4352C7.32557 11.3634 7.11197 11.2351 6.93835 11.0615C6.76472 10.8878 6.63637 10.6742 6.56457 10.4394C6.49277 10.2046 6.47971 9.95575 6.52654 9.71471C6.57337 9.47368 6.67866 9.24782 6.83316 9.05697C6.98766 8.86613 7.18665 8.71613 7.41266 8.62014L9.38165 10.5881L9.37965 10.5871ZM6.31966 4.70014L7.17366 5.55414C7.43365 5.51914 7.70866 5.50014 7.99966 5.50014C10.0437 5.50014 11.2857 6.41214 12.0277 7.31714C12.4352 7.81756 12.7548 8.38363 12.9727 8.99114C12.9897 9.03914 13.0007 9.07614 13.0077 9.10014L13.0157 9.12514V9.12814L13.0167 9.12914C13.0537 9.25394 13.1379 9.35939 13.2514 9.42308C13.3649 9.48677 13.4988 9.50368 13.6246 9.47021C13.7504 9.43675 13.8582 9.35554 13.925 9.24386C13.9919 9.13218 14.0126 8.99883 13.9827 8.87214V8.86914L13.9817 8.86514L13.9777 8.85214C13.9603 8.78898 13.9403 8.72659 13.9177 8.66514C13.661 7.94563 13.2833 7.2753 12.8007 6.68314C11.9047 5.58914 10.3957 4.50014 8.00166 4.50014C7.38366 4.50014 6.82466 4.57214 6.32066 4.69914L6.31966 4.70014Z" fill="#5F5F5F"/>
</svg>
