<svg width="16" height="17" viewBox="0 0 16 17" fill="none" xmlns="http://www.w3.org/2000/svg">
<path d="M14.1717 7.80816C14.4877 8.2215 14.4877 8.7795 14.1717 9.19216C13.1763 10.4915 10.7883 13.1668 8.00033 13.1668C5.21233 13.1668 2.82433 10.4915 1.829 9.19216C1.67526 8.99425 1.5918 8.75078 1.5918 8.50016C1.5918 8.24955 1.67526 8.00607 1.829 7.80816C2.82433 6.50883 5.21233 3.8335 8.00033 3.8335C10.7883 3.8335 13.1763 6.50883 14.1717 7.80816Z" stroke="#5F5F5F" stroke-width="1.33333" stroke-linecap="round" stroke-linejoin="round"/>
<path d="M8 10.5C9.10457 10.5 10 9.60457 10 8.5C10 7.39543 9.10457 6.5 8 6.5C6.89543 6.5 6 7.39543 6 8.5C6 9.60457 6.89543 10.5 8 10.5Z" stroke="#5F5F5F" stroke-width="1.33333" stroke-linecap="round" stroke-linejoin="round"/>
</svg>
