<svg width="19" height="18" viewBox="0 0 19 18" fill="none" xmlns="http://www.w3.org/2000/svg">
<path d="M12.2996 18C12.5383 18 12.7672 17.9052 12.936 17.7364C13.1048 17.5676 13.1996 17.3387 13.1996 17.1C13.1996 16.8613 13.1048 16.6324 12.936 16.4636C12.7672 16.2948 12.5383 16.2 12.2996 16.2H4.79961C4.16309 16.2 3.55264 15.9471 3.10255 15.4971C2.65247 15.047 2.39961 14.4365 2.39961 13.8V4.2C2.39961 3.56348 2.65247 2.95303 3.10255 2.50294C3.55264 2.05286 4.16309 1.8 4.79961 1.8H12.2996C12.5383 1.8 12.7672 1.70518 12.936 1.5364C13.1048 1.36761 13.1996 1.13869 13.1996 0.9C13.1996 0.661305 13.1048 0.432387 12.936 0.263604C12.7672 0.094821 12.5383 0 12.2996 0H4.79961C3.6857 0 2.61741 0.442499 1.82976 1.23015C1.04211 2.0178 0.599609 3.08609 0.599609 4.2V13.8C0.599609 14.9139 1.04211 15.9822 1.82976 16.7698C2.61741 17.5575 3.6857 18 4.79961 18H12.2996ZM13.4888 4.4388C13.5756 4.35857 13.6774 4.29623 13.7883 4.25534C13.8992 4.21446 14.0171 4.19582 14.1353 4.2005C14.2534 4.20518 14.3694 4.23309 14.4767 4.28262C14.5841 4.33216 14.6806 4.40235 14.7608 4.4892L18.3608 8.3892C18.5145 8.55549 18.5998 8.77359 18.5998 9C18.5998 9.22641 18.5145 9.44451 18.3608 9.6108L14.7608 13.5108C14.5987 13.686 14.3735 13.7896 14.135 13.7988C13.8965 13.8081 13.664 13.7222 13.4888 13.56C13.3136 13.3978 13.21 13.1727 13.2008 12.9342C13.1915 12.6956 13.2775 12.4632 13.4396 12.288L15.6452 9.8988H6.29961C6.06091 9.8988 5.832 9.80398 5.66321 9.6352C5.49443 9.46641 5.39961 9.23749 5.39961 8.9988C5.39961 8.76011 5.49443 8.53119 5.66321 8.3624C5.832 8.19362 6.06091 8.0988 6.29961 8.0988H15.644L13.4384 5.7096C13.3582 5.62278 13.2958 5.521 13.255 5.41009C13.2141 5.29917 13.1954 5.18128 13.2001 5.06316C13.2048 4.94504 13.2327 4.829 13.2822 4.72166C13.3318 4.61433 13.402 4.519 13.4888 4.4388Z" fill="currentColor"/>
</svg>
